<mxfile host="app.diagrams.net" modified="2021-12-28T21:52:21.469Z" agent="5.0 (Macintosh; Intel Mac OS X 10_15_7) AppleWebKit/537.36 (KHTML, like Gecko) Chrome/96.0.4664.110 Safari/537.36" etag="T64LYTKo112PQYO5a7aF" version="16.1.0" type="github">
  <diagram id="jmnAOLzwxY9nIC2-uwGT" name="Page-1">
    <mxGraphModel dx="946" dy="532" grid="1" gridSize="10" guides="1" tooltips="1" connect="1" arrows="1" fold="1" page="1" pageScale="1" pageWidth="827" pageHeight="1169" math="0" shadow="0">
      <root>
        <mxCell id="0" />
        <mxCell id="1" parent="0" />
        <mxCell id="UN0OUWXxMWf2bh11lB0P-13" style="edgeStyle=orthogonalEdgeStyle;curved=1;rounded=0;orthogonalLoop=1;jettySize=auto;html=1;entryX=0.5;entryY=1;entryDx=0;entryDy=0;entryPerimeter=0;dashed=1;strokeColor=#FF0000;exitX=1;exitY=0.5;exitDx=0;exitDy=0;" edge="1" parent="1" source="UN0OUWXxMWf2bh11lB0P-1" target="UN0OUWXxMWf2bh11lB0P-6">
          <mxGeometry relative="1" as="geometry">
            <Array as="points">
              <mxPoint x="424" y="408" />
              <mxPoint x="424" y="280" />
              <mxPoint x="503" y="280" />
            </Array>
          </mxGeometry>
        </mxCell>
        <mxCell id="UN0OUWXxMWf2bh11lB0P-14" value="&lt;span style=&quot;font-family: &amp;#34;amazon ember&amp;#34; , &amp;#34;helvetica neue&amp;#34; , &amp;#34;roboto&amp;#34; , &amp;#34;arial&amp;#34; , sans-serif ; font-size: 14px ; text-align: left&quot;&gt;&lt;font color=&quot;#ff0000&quot;&gt;GroupInServiceCapacity&lt;/font&gt;&lt;/span&gt;" style="edgeLabel;html=1;align=center;verticalAlign=middle;resizable=0;points=[];" vertex="1" connectable="0" parent="UN0OUWXxMWf2bh11lB0P-13">
          <mxGeometry x="-0.0606" relative="1" as="geometry">
            <mxPoint as="offset" />
          </mxGeometry>
        </mxCell>
        <mxCell id="UN0OUWXxMWf2bh11lB0P-1" value="Auto Scaling group" style="points=[[0,0],[0.25,0],[0.5,0],[0.75,0],[1,0],[1,0.25],[1,0.5],[1,0.75],[1,1],[0.75,1],[0.5,1],[0.25,1],[0,1],[0,0.75],[0,0.5],[0,0.25]];outlineConnect=0;gradientColor=none;html=1;whiteSpace=wrap;fontSize=12;fontStyle=0;container=1;pointerEvents=0;collapsible=0;recursiveResize=0;shape=mxgraph.aws4.groupCenter;grIcon=mxgraph.aws4.group_auto_scaling_group;grStroke=1;strokeColor=#D86613;fillColor=none;verticalAlign=top;align=center;fontColor=#D86613;dashed=1;spacingTop=25;" vertex="1" parent="1">
          <mxGeometry x="70" y="330" width="300" height="155" as="geometry" />
        </mxCell>
        <mxCell id="UN0OUWXxMWf2bh11lB0P-9" value="EC2 instance" style="sketch=0;outlineConnect=0;fontColor=#232F3E;gradientColor=none;fillColor=#D45B07;strokeColor=none;dashed=0;verticalLabelPosition=bottom;verticalAlign=top;align=center;html=1;fontSize=12;fontStyle=0;aspect=fixed;pointerEvents=1;shape=mxgraph.aws4.instance2;" vertex="1" parent="UN0OUWXxMWf2bh11lB0P-1">
          <mxGeometry x="196" y="70" width="48" height="48" as="geometry" />
        </mxCell>
        <mxCell id="UN0OUWXxMWf2bh11lB0P-4" value="EC2 instance" style="sketch=0;outlineConnect=0;fontColor=#232F3E;gradientColor=none;fillColor=#D45B07;strokeColor=none;dashed=0;verticalLabelPosition=bottom;verticalAlign=top;align=center;html=1;fontSize=12;fontStyle=0;aspect=fixed;pointerEvents=1;shape=mxgraph.aws4.instance2;" vertex="1" parent="UN0OUWXxMWf2bh11lB0P-1">
          <mxGeometry x="56" y="70" width="48" height="48" as="geometry" />
        </mxCell>
        <mxCell id="UN0OUWXxMWf2bh11lB0P-18" style="edgeStyle=orthogonalEdgeStyle;rounded=0;orthogonalLoop=1;jettySize=auto;html=1;fontColor=#FF0000;strokeColor=#666666;" edge="1" parent="1" source="UN0OUWXxMWf2bh11lB0P-2" target="UN0OUWXxMWf2bh11lB0P-4">
          <mxGeometry relative="1" as="geometry">
            <Array as="points">
              <mxPoint x="220" y="290" />
              <mxPoint x="150" y="290" />
            </Array>
          </mxGeometry>
        </mxCell>
        <mxCell id="UN0OUWXxMWf2bh11lB0P-19" style="edgeStyle=orthogonalEdgeStyle;rounded=0;orthogonalLoop=1;jettySize=auto;html=1;fontColor=#FF0000;strokeColor=#666666;strokeWidth=1;" edge="1" parent="1" source="UN0OUWXxMWf2bh11lB0P-2" target="UN0OUWXxMWf2bh11lB0P-9">
          <mxGeometry relative="1" as="geometry">
            <Array as="points">
              <mxPoint x="220" y="290" />
              <mxPoint x="290" y="290" />
            </Array>
          </mxGeometry>
        </mxCell>
        <mxCell id="UN0OUWXxMWf2bh11lB0P-2" value="AWS Auto Scaling" style="sketch=0;points=[[0,0,0],[0.25,0,0],[0.5,0,0],[0.75,0,0],[1,0,0],[0,1,0],[0.25,1,0],[0.5,1,0],[0.75,1,0],[1,1,0],[0,0.25,0],[0,0.5,0],[0,0.75,0],[1,0.25,0],[1,0.5,0],[1,0.75,0]];outlineConnect=0;fontColor=#232F3E;gradientColor=#F78E04;gradientDirection=north;fillColor=#D05C17;strokeColor=#ffffff;dashed=0;verticalLabelPosition=bottom;verticalAlign=top;align=center;html=1;fontSize=12;fontStyle=0;aspect=fixed;shape=mxgraph.aws4.resourceIcon;resIcon=mxgraph.aws4.auto_scaling2;" vertex="1" parent="1">
          <mxGeometry x="190" y="180" width="60" height="60" as="geometry" />
        </mxCell>
        <mxCell id="UN0OUWXxMWf2bh11lB0P-24" style="rounded=0;orthogonalLoop=1;jettySize=auto;html=1;fontColor=#FF0000;strokeColor=#000000;strokeWidth=2;dashed=1;endArrow=open;endFill=0;" edge="1" parent="1" source="UN0OUWXxMWf2bh11lB0P-6" target="UN0OUWXxMWf2bh11lB0P-2">
          <mxGeometry relative="1" as="geometry" />
        </mxCell>
        <mxCell id="UN0OUWXxMWf2bh11lB0P-6" value="AWS CloudWatch" style="sketch=0;points=[[0,0,0],[0.25,0,0],[0.5,0,0],[0.75,0,0],[1,0,0],[0,1,0],[0.25,1,0],[0.5,1,0],[0.75,1,0],[1,1,0],[0,0.25,0],[0,0.5,0],[0,0.75,0],[1,0.25,0],[1,0.5,0],[1,0.75,0]];points=[[0,0,0],[0.25,0,0],[0.5,0,0],[0.75,0,0],[1,0,0],[0,1,0],[0.25,1,0],[0.5,1,0],[0.75,1,0],[1,1,0],[0,0.25,0],[0,0.5,0],[0,0.75,0],[1,0.25,0],[1,0.5,0],[1,0.75,0]];outlineConnect=0;fontColor=#232F3E;gradientColor=#F34482;gradientDirection=north;fillColor=#BC1356;strokeColor=#ffffff;dashed=0;verticalLabelPosition=bottom;verticalAlign=top;align=center;html=1;fontSize=12;fontStyle=0;aspect=fixed;shape=mxgraph.aws4.resourceIcon;resIcon=mxgraph.aws4.cloudwatch_2;" vertex="1" parent="1">
          <mxGeometry x="472" y="180" width="60" height="60" as="geometry" />
        </mxCell>
        <mxCell id="UN0OUWXxMWf2bh11lB0P-7" value="" style="sketch=0;outlineConnect=0;fontColor=#232F3E;gradientColor=none;fillColor=#B0084D;strokeColor=none;dashed=0;verticalLabelPosition=bottom;verticalAlign=top;align=center;html=1;fontSize=12;fontStyle=0;aspect=fixed;pointerEvents=1;shape=mxgraph.aws4.alarm;" vertex="1" parent="1">
          <mxGeometry x="553" y="180" width="40" height="40" as="geometry" />
        </mxCell>
        <mxCell id="UN0OUWXxMWf2bh11lB0P-8" value="AWS SQS" style="sketch=0;points=[[0,0,0],[0.25,0,0],[0.5,0,0],[0.75,0,0],[1,0,0],[0,1,0],[0.25,1,0],[0.5,1,0],[0.75,1,0],[1,1,0],[0,0.25,0],[0,0.5,0],[0,0.75,0],[1,0.25,0],[1,0.5,0],[1,0.75,0]];outlineConnect=0;fontColor=#232F3E;gradientColor=#FF4F8B;gradientDirection=north;fillColor=#BC1356;strokeColor=#ffffff;dashed=0;verticalLabelPosition=bottom;verticalAlign=top;align=center;html=1;fontSize=12;fontStyle=0;aspect=fixed;shape=mxgraph.aws4.resourceIcon;resIcon=mxgraph.aws4.sqs;" vertex="1" parent="1">
          <mxGeometry x="472" y="390" width="60" height="60" as="geometry" />
        </mxCell>
        <mxCell id="UN0OUWXxMWf2bh11lB0P-21" style="edgeStyle=orthogonalEdgeStyle;curved=1;rounded=0;orthogonalLoop=1;jettySize=auto;html=1;dashed=1;fontColor=#FF0000;strokeColor=#FF0000;strokeWidth=1;" edge="1" parent="1" source="UN0OUWXxMWf2bh11lB0P-10" target="UN0OUWXxMWf2bh11lB0P-6">
          <mxGeometry relative="1" as="geometry">
            <Array as="points">
              <mxPoint x="624" y="420" />
              <mxPoint x="624" y="215" />
            </Array>
          </mxGeometry>
        </mxCell>
        <mxCell id="UN0OUWXxMWf2bh11lB0P-22" value="&lt;span style=&quot;font-family: &amp;quot;amazon ember&amp;quot;, &amp;quot;helvetica neue&amp;quot;, roboto, arial, sans-serif; font-size: 14px; text-align: left;&quot;&gt;ApproximateNumberOfMessagesVisible&lt;/span&gt;" style="edgeLabel;html=1;align=center;verticalAlign=middle;resizable=0;points=[];fontColor=#FF0000;" vertex="1" connectable="0" parent="UN0OUWXxMWf2bh11lB0P-21">
          <mxGeometry x="-0.1605" y="-1" relative="1" as="geometry">
            <mxPoint y="-22" as="offset" />
          </mxGeometry>
        </mxCell>
        <mxCell id="UN0OUWXxMWf2bh11lB0P-23" value="&lt;span style=&quot;font-family: &amp;#34;amazon ember&amp;#34; , &amp;#34;helvetica neue&amp;#34; , &amp;#34;roboto&amp;#34; , &amp;#34;arial&amp;#34; , sans-serif ; font-size: 14px ; text-align: left&quot;&gt;ApproximateNumberOfMessagesNotVisible&lt;/span&gt;" style="edgeLabel;html=1;align=center;verticalAlign=middle;resizable=0;points=[];fontColor=#FF0000;" vertex="1" connectable="0" parent="UN0OUWXxMWf2bh11lB0P-21">
          <mxGeometry x="-0.4321" relative="1" as="geometry">
            <mxPoint as="offset" />
          </mxGeometry>
        </mxCell>
        <mxCell id="UN0OUWXxMWf2bh11lB0P-10" value="Jobs queue" style="sketch=0;outlineConnect=0;fontColor=#232F3E;gradientColor=none;fillColor=#B0084D;strokeColor=none;dashed=0;verticalLabelPosition=bottom;verticalAlign=top;align=center;html=1;fontSize=12;fontStyle=0;aspect=fixed;pointerEvents=1;shape=mxgraph.aws4.queue;" vertex="1" parent="1">
          <mxGeometry x="548" y="405.53999999999996" width="48" height="28.92" as="geometry" />
        </mxCell>
        <mxCell id="UN0OUWXxMWf2bh11lB0P-25" value="&lt;font style=&quot;font-size: 14px&quot; color=&quot;#000000&quot;&gt;Run Auto Scaling Policy&lt;/font&gt;" style="text;html=1;align=center;verticalAlign=middle;resizable=0;points=[];autosize=1;strokeColor=none;fillColor=none;fontColor=#FF0000;" vertex="1" parent="1">
          <mxGeometry x="278" y="180" width="160" height="20" as="geometry" />
        </mxCell>
        <mxCell id="UN0OUWXxMWf2bh11lB0P-26" value="If the average backload per instance &amp;gt; 5&lt;br&gt;&lt;div style=&quot;text-align: right&quot;&gt;&lt;span&gt;for 1 minute&lt;/span&gt;&lt;/div&gt;" style="text;html=1;align=center;verticalAlign=middle;resizable=0;points=[];autosize=1;strokeColor=none;fillColor=none;fontSize=14;fontColor=#000000;" vertex="1" parent="1">
          <mxGeometry x="510" y="80" width="260" height="40" as="geometry" />
        </mxCell>
        <mxCell id="UN0OUWXxMWf2bh11lB0P-27" value="If there are messages in the queue and the average&lt;br&gt;backload per instance &amp;lt; 5 for 1 minute" style="text;html=1;align=right;verticalAlign=middle;resizable=0;points=[];autosize=1;strokeColor=none;fillColor=none;fontSize=14;fontColor=#000000;" vertex="1" parent="1">
          <mxGeometry x="430" y="140" width="340" height="40" as="geometry" />
        </mxCell>
        <mxCell id="UN0OUWXxMWf2bh11lB0P-28" value="Backload per instance = &lt;br&gt;&lt;div&gt;&lt;span&gt;(&lt;/span&gt;&lt;span style=&quot;font-family: &amp;#34;amazon ember&amp;#34; , &amp;#34;helvetica neue&amp;#34; , &amp;#34;roboto&amp;#34; , &amp;#34;arial&amp;#34; , sans-serif ; background-color: rgb(255 , 255 , 255)&quot;&gt;ApproximateNumberOfMessagesVisible+ApproximateNumberOfMessagesNotVisible&lt;/span&gt;&lt;span&gt;)/GroupInServiceCapacity&lt;/span&gt;&lt;/div&gt;" style="text;html=1;align=left;verticalAlign=middle;resizable=0;points=[];autosize=1;strokeColor=none;fillColor=none;fontSize=14;fontColor=#000000;" vertex="1" parent="1">
          <mxGeometry x="70" y="500" width="710" height="40" as="geometry" />
        </mxCell>
        <mxCell id="UN0OUWXxMWf2bh11lB0P-29" value="or" style="text;html=1;align=center;verticalAlign=middle;resizable=0;points=[];autosize=1;strokeColor=none;fillColor=none;fontSize=14;fontColor=#000000;" vertex="1" parent="1">
          <mxGeometry x="640" y="120" width="30" height="20" as="geometry" />
        </mxCell>
      </root>
    </mxGraphModel>
  </diagram>
</mxfile>
